Coordinates
version=1
nRows=9
nColumns=63
inDegrees=yes

Units are S.I. units (second, meters, Newtons, ...)
If the header above contains a line with 'inDegrees', this indicates whether rotational values are in degrees (yes) or radians (no).

endheader
time	pelvis_tilt	pelvis_list	pelvis_rotation	pelvis_tx	pelvis_ty	pelvis_tz	hip_flexion_r	hip_adduction_r	hip_rotation_r	knee_angle_r	knee_angle_r_beta	ankle_angle_r	subtalar_angle_r	mtp_angle_r	hip_flexion_l	hip_adduction_l	hip_rotation_l	knee_angle_l	knee_angle_l_beta	ankle_angle_l	subtalar_angle_l	mtp_angle_l	L5_S1_Flex_Ext	L5_S1_Lat_Bending	L5_S1_axial_rotation	L4_L5_Flex_Ext	L4_L5_Lat_Bending	L4_L5_axial_rotation	L3_L4_Flex_Ext	L3_L4_Lat_Bending	L3_L4_axial_rotation	L2_L3_Flex_Ext	L2_L3_Lat_Bending	L2_L3_axial_rotation	L1_L2_Flex_Ext	L1_L2_Lat_Bending	L1_L2_axial_rotation	L1_T12_Flex_Ext	L1_T12_Lat_Bending	L1_T12_axial_rotation	Abs_r3	Abs_r2	Abs_r1	Abs_t1	Abs_t2	neck_flexion	neck_bending	neck_rotation	arm_flex_r	arm_add_r	arm_rot_r	elbow_flex_r	pro_sup_r	wrist_flex_r	wrist_dev_r	arm_flex_l	arm_add_l	arm_rot_l	elbow_flex_l	pro_sup_l	wrist_flex_l	wrist_dev_l
      2.02040816	     -1.13427050	     -6.29255868	     84.08079943	      0.09788261	      1.11724677	      0.48087701	     15.02015963	     -4.66378875	      2.79477397	     16.44729148	      0.28705939	     37.82181474	      9.47138747	      0.00000000	     12.57684654	      5.54515628	     -1.77598912	     13.16728081	      0.22981240	     34.70295010	     -2.00025753	      0.00000000	     -0.30411859	      0.84357553	      2.52584356	     -0.56477863	      1.12195546	      2.68370879	     -0.49963643	      2.05106955	      2.68370879	     -0.34757713	      2.05106955	      2.21011312	     -0.28240452	      1.72021922	      2.05224789	     -0.17377336	      1.30669850	      1.89438267	     -2.17228866	      9.54269512	     14.04798414	      0.00000000	      0.00000000	     -6.73004767	    -13.42574836	    -29.42662014	     21.61313057	    -34.84274425	      1.57460105	     28.86379944	     78.13791653	    -15.98679973	     -0.98401805	     15.62250563	     -1.03883096	    155.21274985	      0.38663474	      2.65752519	     -4.16284712	    -15.35586368
      2.04081633	     -0.34972517	     -6.88824926	     85.06595497	      0.09105272	      1.11524261	      0.48362418	     15.42427223	     -4.31645112	      1.66265414	     16.23522934	      0.28335821	     37.40272608	      8.85435708	      0.00000000	     13.42232617	      5.00123454	     -1.17959087	     13.95959784	      0.24364094	     34.55078235	     -1.59958625	      0.00000000	     -0.25678915	      1.16472074	      2.28834200	     -0.47688312	      1.54907858	      2.43136337	     -0.42187889	      2.83190201	      2.43136337	     -0.29348432	      2.83190201	      2.00229925	     -0.23845440	      2.37509853	      1.85927787	     -0.14672932	      1.80415243	      1.71625650	     -1.83421920	     13.17555395	     12.72707169	      0.00000000	      0.00000000	     -5.17041159	    -16.34878042	    -26.28984311	     23.78887315	    -36.14444372	      2.77440366	     26.88894029	     76.29528552	    -14.54589847	     -0.47244134	     14.98755803	      0.32653657	    156.74535268	      0.35995339	      3.27060177	     -5.63543677	    -15.10191007
      2.06122449	      0.12283623	     -7.56228506	     85.85629081	      0.08568700	      1.11347544	      0.48688596	     16.07292977	     -4.17611197	      0.83505909	     16.21188824	      0.28295083	     36.88624605	      8.16641474	      0.00000000	     14.29255368	      4.65156477	     -0.73252861	     14.42670937	      0.25179358	     34.36553785	     -0.99097559	      0.00000000	     -0.22691623	      1.40199555	      2.09732607	     -0.42140612	      1.86465407	      2.22840895	     -0.37280067	      3.40881197	      2.22840895	     -0.25934255	      3.40881197	      1.83516031	     -0.21071441	      2.85894932	      1.70407743	     -0.12965993	      2.17169110	      1.57299455	     -1.62083991	     15.85965400	     11.66469840	      0.00000000	      0.00000000	     -3.85142712	    -18.23564640	    -23.70952711	     25.77732209	    -37.32567009	      5.15782344	     25.39475617	     75.85103788	    -14.45490521	     -1.38351862	     14.50563076	      1.30199934	    156.05564773	      0.36205044	      3.18267631	     -5.83461237	    -14.60277574
      2.08163265	      0.40518587	     -8.09199168	     86.60301845	      0.08135430	      1.11199874	      0.49061406	     16.71931102	     -4.13030256	      0.58061868	     16.39343160	      0.28611936	     36.30412129	      6.88394216	      0.00000000	     14.99803566	      4.26558674	     -1.71900140	     14.72432164	      0.25698789	     34.55437714	      1.88780975	      0.00000000	     -0.24064014	      1.57568126	      1.98206829	     -0.44689280	      2.09565608	      2.10594756	     -0.39534768	      3.83111142	      2.10594756	     -0.27502761	      3.83111142	      1.73430976	     -0.22345843	      3.21312923	      1.61043049	     -0.13750177	      2.44073028	      1.48655122	     -1.71886844	     17.82442158	     11.02366923	      0.00000000	      0.00000000	     -3.06700145	    -19.11041645	    -22.07468978	     27.72399778	    -39.29149798	     13.66707263	     23.81024997	     69.12311801	    -15.64790895	     -3.99532998	     14.20448161	      2.02409450	    153.00104690	      0.40680176	      2.94670574	     -5.25346443	    -14.38444868
      2.10204082	      0.53541278	     -8.73790060	     87.07505275	      0.07784024	      1.11017550	      0.49468047	     17.66341359	     -4.20000317	      0.25994141	     16.76015047	      0.29251981	     35.79908332	      6.10075321	      0.00000000	     15.83701261	      4.08039460	     -1.81115072	     14.89468484	      0.25996129	     34.46395222	      3.50123922	      0.00000000	     -0.24824039	      1.71767097	      2.06224372	     -0.46100722	      2.28450239	      2.19113395	     -0.40783413	      4.17634519	      2.19113395	     -0.28371394	      4.17634519	      1.80446325	     -0.23051602	      3.50267464	      1.67557302	     -0.14184456	      2.66067233	      1.54668279	     -1.77315626	     19.43063752	     11.46958088	      0.00000000	      0.00000000	     -2.82574309	    -19.52616923	    -21.46185723	     27.75764395	    -40.55013224	     14.29311362	     23.27279039	     69.68217241	    -15.90661248	     -4.69920332	     14.09236653	      2.75817740	    149.53353782	      0.49995090	      2.39402536	     -4.44547452	    -14.45487841
      2.12244898	      0.73634021	     -9.45988407	     87.33626891	      0.07493428	      1.10806296	      0.49894893	     18.76129290	     -4.12440443	      0.10195711	     17.17634641	      0.29978380	     35.29012330	      5.37556973	      0.00000000	     16.84026082	      3.75944301	     -1.99714723	     15.17404819	      0.26483710	     34.43139283	      5.23597633	      0.00000000	     -0.24995410	      1.85850938	      2.29042272	     -0.46418976	      2.47181748	      2.43357414	     -0.41064960	      4.51877971	      2.43357414	     -0.28567254	      4.51877971	      2.00411988	     -0.23210738	      3.78987233	      1.86096846	     -0.14282377	      2.87883103	      1.71781704	     -1.78539716	     21.02382981	     12.73864402	      0.00000000	      0.00000000	     -2.88401610	    -20.07802933	    -21.99738791	     26.81520732	    -42.07233267	     14.03627821	     23.05970915	     69.25597708	    -15.96129649	     -4.94775619	     14.12953420	      3.55236484	    146.56667456	      0.66136750	      1.85287726	     -4.08758604	    -14.91608592
      2.14285714	      0.85766562	     -9.89715902	     87.49734589	      0.07301428	      1.10624270	      0.50302948	     19.58698160	     -3.91989731	      1.03498671	     17.61362226	      0.30741570	     34.78439276	      3.35255376	      0.00000000	     17.47612627	      3.15756828	     -4.74552265	     15.35844646	      0.26805546	     34.81373877	     10.49767657	      0.00000000	     -0.30144894	      1.96614964	      2.53949014	     -0.55982082	      2.61497903	      2.69820828	     -0.49525046	      4.78049625	      2.69820828	     -0.34452599	      4.78049625	      2.22205387	     -0.27992548	      4.00937236	      2.06333574	     -0.17224792	      3.04556580	      1.90461761	     -2.15321962	     22.24147801	     14.12388232	      0.00000000	      0.00000000	     -2.65521794	    -20.38669174	    -23.20166173	     25.78233992	    -43.43520246	     14.21146557	     22.76588141	     68.40134343	    -15.83584391	     -4.76984693	     14.32502686	      4.06910021	    142.07696909	      1.07237520	      1.81018721	     -3.03386417	    -15.92689947
      2.16326531	      1.05069052	    -10.31518255	     87.62698163	      0.07116898	      1.10450676	      0.50642421	     20.37224124	     -3.77577246	      0.98188124	     18.06824684	      0.31535040	     34.69515865	      2.83095920	      0.00000000	     17.98478563	      2.85091517	     -4.88283016	     15.32963440	      0.26755259	     34.60337406	     12.06891246	      0.00000000	     -0.32783928	      2.06262522	      2.79769295	     -0.60883033	      2.74329155	      2.97254876	     -0.53860716	      5.01506697	      2.97254876	     -0.37468752	      5.01506697	      2.44798133	     -0.30443156	      4.20610536	      2.27312552	     -0.18732737	      3.19500647	      2.09826971	     -2.34172322	     23.33282905	     15.55992886	      0.00000000	      0.00000000	     -2.47256322	    -20.93063679	    -25.51558360	     24.11190514	    -44.76279074	     13.78854728	     23.02793861	     67.55630090	    -16.05796185	     -4.05352164	     14.58202713	      4.43465483	    139.35561625	      1.76516686	      1.54349292	     -2.74034985	    -16.83138321
      2.18367347	      1.06442325	    -10.64221933	     87.40579824	      0.07049349	      1.10294183	      0.50914781	     21.13106392	     -3.66597539	      1.22542538	     18.58342088	      0.32434188	     34.79922686	      2.44758355	      0.00000000	     18.19111101	      2.54985359	     -6.03475514	     14.98446539	      0.26152826	     34.37030384	     14.36631560	      0.00000000	     -0.35524908	      2.11420581	      3.04946688	     -0.65973307	      2.81189372	      3.24005856	     -0.58363872	      5.14048000	      3.24005856	     -0.40601418	      5.14048000	      2.66828352	     -0.32988430	      4.31128848	      2.47769184	     -0.20298933	      3.27490480	      2.28710016	     -2.53750868	     23.91631893	     16.96021996	      0.00000000	      0.00000000	     -2.00308645	    -21.26578769	    -27.57533059	     22.48398091	    -45.60148822	     13.10098571	     23.34809256	     66.87284865	    -16.03902255	     -3.51914401	     14.94864835	      4.31764022	    135.42118357	      3.17420119	      1.69587645	     -2.31118949	    -17.49122127
